<svg xmlns="http://www.w3.org/2000/svg" viewBox="33.0 -36.5 681 681" shape-rendering="geometricPrecision">
  <path fill="#152252" fill-rule="evenodd" d="M 450.75,543.75 L 450.75,557.00 L 451.75,558.00 L 484.00,558.00 L 488.00,556.00 L 488.00,543.75 L 486.00,541.75 L 455.75,541.75 L 454.25,543.00 L 451.75,542.75 Z"/>
  <path fill="#152252" fill-rule="evenodd" d="M 608.25,496.00 L 608.00,502.25 L 606.75,503.75 L 607.00,586.50 L 611.25,586.75 L 612.75,588.00 L 667.00,588.00 L 668.50,586.75 L 675.00,587.00 L 685.50,580.75 L 692.00,571.00 L 693.00,561.75 L 691.75,560.25 L 692.00,557.75 L 689.75,553.25 L 689.75,550.25 L 679.00,540.50 L 680.00,537.25 L 687.00,527.00 L 687.00,511.75 L 684.75,507.25 L 677.50,500.00 L 666.50,497.00 L 665.00,495.75 Z M 627.00,550.25 L 629.50,547.75 L 632.25,547.75 L 633.75,549.00 L 663.25,548.75 L 670.00,554.50 L 671.00,564.25 L 667.50,568.75 L 662.25,572.00 L 628.50,572.00 L 627.75,571.25 L 628.00,552.75 Z M 626.75,513.50 L 629.50,510.75 L 655.25,510.75 L 656.25,511.75 L 661.25,512.75 L 667.00,518.50 L 667.00,525.25 L 661.50,531.75 L 656.25,534.00 L 629.50,534.00 L 626.75,531.25 Z"/>
  <path fill="#152252" fill-rule="evenodd" d="M 366.25,496.00 L 366.25,511.75 L 392.25,511.75 L 396.00,515.50 L 395.75,586.00 L 398.75,588.00 L 414.50,587.75 L 414.75,582.50 L 416.00,581.00 L 415.75,514.50 L 418.50,511.75 L 420.25,511.75 L 421.75,513.00 L 445.50,512.75 L 447.00,511.00 L 446.75,497.25 L 442.50,497.00 L 441.00,495.75 Z"/>
  <path fill="#152252" fill-rule="evenodd" d="M 300.75,495.75 L 299.75,496.75 L 299.75,510.00 L 301.25,511.75 L 329.25,511.75 L 332.00,514.50 L 332.00,563.25 L 329.75,567.50 L 322.25,573.00 L 314.50,573.00 L 308.25,569.75 L 302.50,564.00 L 299.75,563.75 L 291.00,574.25 L 290.00,577.50 L 297.25,584.75 L 299.25,584.75 L 302.25,586.75 L 310.25,588.75 L 311.75,590.00 L 325.00,590.00 L 326.50,588.75 L 335.00,588.00 L 348.75,576.50 L 349.75,571.50 L 352.00,568.00 L 351.75,560.50 L 353.00,559.00 L 353.00,497.75 L 349.00,495.75 Z"/>
  <path fill="#152252" fill-rule="evenodd" d="M 54.00,497.25 L 53.75,499.00 L 55.00,500.50 L 55.00,502.50 L 56.00,503.50 L 56.00,505.50 L 57.00,506.50 L 57.00,508.50 L 58.00,509.50 L 58.00,511.50 L 59.00,512.50 L 59.00,514.50 L 60.00,515.50 L 60.00,517.50 L 61.00,518.50 L 61.00,520.50 L 62.00,521.50 L 62.00,523.50 L 63.00,524.50 L 63.00,526.50 L 64.00,527.50 L 64.00,529.50 L 65.00,530.50 L 65.00,532.50 L 66.00,533.50 L 66.00,535.50 L 67.00,536.50 L 67.00,538.50 L 68.00,539.50 L 68.00,541.50 L 76.00,563.50 L 75.75,566.00 L 78.00,570.50 L 77.75,573.00 L 79.00,574.50 L 78.75,577.00 L 80.00,578.50 L 80.75,585.00 L 83.25,587.75 L 104.00,588.00 L 105.50,586.75 L 107.75,586.50 L 107.75,583.50 L 109.00,582.00 L 108.75,579.50 L 110.00,578.00 L 109.75,575.50 L 112.00,571.00 L 111.75,568.50 L 112.75,567.50 L 113.75,562.50 L 115.75,559.50 L 117.75,551.50 L 119.75,548.50 L 121.75,540.50 L 124.00,537.00 L 123.75,531.50 L 126.00,528.25 L 127.50,528.00 L 129.00,529.50 L 129.00,531.50 L 137.00,553.50 L 136.75,558.00 L 138.00,559.50 L 139.00,564.50 L 141.00,567.50 L 141.00,569.50 L 146.00,580.50 L 146.00,585.50 L 147.75,587.00 L 172.75,586.50 L 172.75,582.50 L 174.00,581.00 L 173.75,577.50 L 175.00,576.00 L 174.75,573.50 L 179.00,567.00 L 178.75,563.50 L 180.00,562.00 L 179.75,559.50 L 181.00,558.00 L 181.75,551.50 L 189.00,536.00 L 188.75,532.50 L 190.00,531.00 L 190.75,524.50 L 194.00,519.00 L 193.75,514.50 L 200.00,500.00 L 199.50,496.00 L 182.75,495.75 L 181.25,497.00 L 179.00,497.25 L 178.00,502.25 L 176.75,503.75 L 177.00,506.25 L 176.00,507.25 L 170.00,527.25 L 168.75,528.75 L 169.00,531.25 L 167.75,532.75 L 168.00,537.25 L 160.75,552.75 L 161.00,557.25 L 159.50,558.75 L 155.75,557.25 L 156.00,550.75 L 154.75,549.25 L 154.75,547.25 L 153.75,546.25 L 153.75,544.25 L 152.75,543.25 L 152.75,541.25 L 151.75,540.25 L 151.75,538.25 L 150.75,537.25 L 150.75,535.25 L 149.75,534.25 L 149.75,532.25 L 148.75,531.25 L 148.75,529.25 L 147.75,528.25 L 147.75,526.25 L 146.75,525.25 L 146.75,523.25 L 145.75,522.25 L 137.50,496.00 L 119.75,495.75 L 118.25,497.00 L 116.00,497.25 L 116.00,501.25 L 114.75,502.75 L 114.00,509.25 L 107.75,523.75 L 108.00,528.25 L 102.75,537.75 L 103.00,540.25 L 100.75,544.75 L 101.00,547.25 L 98.75,551.75 L 99.00,554.25 L 96.50,558.75 L 93.75,557.25 L 93.75,555.25 L 91.75,551.25 L 92.00,548.75 L 88.75,541.25 L 89.00,538.75 L 85.75,531.25 L 86.00,528.75 L 82.75,521.25 L 83.00,518.75 L 79.75,511.25 L 80.00,508.75 L 76.75,501.25 L 76.75,498.25 L 74.00,495.75 L 56.75,495.75 Z"/>
  <path fill="#152252" fill-rule="evenodd" d="M 531.75,496.75 L 521.25,503.00 L 510.00,514.25 L 509.00,516.25 L 509.00,518.25 L 506.00,523.25 L 506.00,525.25 L 503.75,528.75 L 504.00,531.25 L 502.75,532.75 L 502.75,553.00 L 504.00,554.50 L 503.75,558.00 L 510.00,569.50 L 522.25,581.75 L 534.75,588.00 L 538.25,587.75 L 539.75,589.00 L 543.25,588.75 L 544.75,590.00 L 561.00,590.00 L 562.50,588.75 L 571.00,588.00 L 579.50,583.75 L 587.50,577.75 L 590.00,575.00 L 589.75,571.25 L 578.50,561.00 L 574.25,563.00 L 566.25,570.00 L 564.25,570.00 L 560.25,572.00 L 543.50,571.00 L 536.25,566.75 L 528.00,558.50 L 523.75,549.25 L 523.75,537.50 L 525.00,536.00 L 525.75,529.50 L 526.75,528.50 L 526.75,526.50 L 531.00,521.25 L 542.50,512.75 L 563.25,512.75 L 564.25,513.75 L 566.25,513.75 L 574.25,520.75 L 579.00,522.00 L 590.75,510.50 L 590.75,509.25 L 584.50,503.00 L 581.50,503.00 L 574.50,497.00 L 571.50,497.00 L 567.00,494.75 L 564.50,495.00 L 563.00,493.75 L 544.75,493.75 L 543.25,495.00 L 540.75,494.75 L 535.25,497.00 Z"/>
  <path fill="#152252" fill-rule="evenodd" d="M 229.75,495.75 L 220.25,501.00 L 213.00,508.25 L 209.75,514.75 L 209.75,531.00 L 213.00,536.50 L 223.75,545.00 L 226.25,544.75 L 233.75,548.00 L 236.25,547.75 L 243.75,551.00 L 246.25,550.75 L 250.75,553.00 L 253.25,552.75 L 254.25,553.75 L 259.25,554.75 L 264.00,559.50 L 264.00,565.25 L 258.50,570.75 L 253.25,573.00 L 237.50,573.00 L 236.00,571.75 L 233.50,572.00 L 232.00,570.75 L 226.50,570.00 L 220.50,566.00 L 214.75,563.75 L 212.00,568.25 L 212.00,570.25 L 207.75,579.00 L 221.75,587.00 L 224.25,586.75 L 225.75,588.00 L 228.25,587.75 L 233.75,590.00 L 253.00,590.00 L 254.50,588.75 L 258.00,589.00 L 259.50,587.75 L 264.00,588.00 L 275.50,581.75 L 281.75,575.50 L 285.00,568.00 L 285.00,555.75 L 283.75,554.25 L 284.00,550.75 L 274.50,541.00 L 272.50,540.00 L 270.50,540.00 L 260.00,534.75 L 256.50,535.00 L 255.00,533.75 L 251.50,534.00 L 250.00,532.75 L 241.50,532.00 L 235.25,528.75 L 230.75,524.25 L 230.75,520.50 L 232.00,519.00 L 232.25,516.00 L 241.50,510.75 L 255.25,510.75 L 256.25,511.75 L 270.25,515.75 L 271.75,517.00 L 274.00,517.00 L 280.00,506.00 L 280.00,503.75 L 278.75,501.25 L 275.50,499.00 L 273.50,499.00 L 268.00,495.75 L 263.50,496.00 L 262.00,494.75 L 258.50,495.00 L 257.00,493.75 L 239.75,493.75 L 238.25,495.00 Z"/>
  <path fill="#152252" fill-rule="evenodd" d="M 627.25,186.00 L 619.00,197.25 L 619.00,199.25 L 616.75,202.75 L 616.75,206.00 L 624.00,217.50 L 625.00,222.50 L 629.00,230.50 L 629.00,232.50 L 632.25,240.75 L 635.25,240.75 L 636.75,242.00 L 663.50,241.75 L 664.00,238.75 L 662.75,237.25 L 657.75,220.25 L 649.75,204.25 L 648.75,200.25 L 634.50,188.00 L 629.00,185.75 Z"/>
  <path fill="#152252" fill-rule="evenodd" d="M 250.75,180.75 L 243.00,188.25 L 242.75,191.00 L 252.00,204.50 L 251.75,207.00 L 254.00,212.50 L 254.00,225.25 L 251.00,231.25 L 251.00,233.25 L 244.00,242.25 L 243.00,245.50 L 252.25,254.75 L 253.50,254.75 L 261.75,245.50 L 262.75,241.50 L 267.00,233.00 L 266.75,230.50 L 268.00,229.00 L 268.00,206.75 L 266.75,205.25 L 265.75,200.25 L 263.75,197.25 L 263.75,195.25 L 261.75,192.25 L 261.75,190.25 L 253.50,181.00 Z"/>
  <path fill="#152252" fill-rule="evenodd" d="M 186.50,180.00 L 185.25,180.00 L 174.00,192.25 L 170.00,206.25 L 168.75,207.75 L 168.75,230.00 L 170.00,231.50 L 169.75,234.00 L 173.00,239.50 L 174.00,243.50 L 183.25,254.75 L 184.50,254.75 L 188.50,251.75 L 194.00,246.00 L 192.75,241.25 L 184.75,230.25 L 185.00,227.75 L 183.75,226.25 L 183.75,213.50 L 185.00,212.00 L 184.75,205.50 L 195.00,191.00 L 194.75,188.25 Z"/>
  <path fill="#152252" fill-rule="evenodd" d="M 164.00,157.75 L 161.25,158.00 L 154.00,165.25 L 146.00,177.25 L 145.00,181.25 L 142.00,186.25 L 142.00,188.25 L 138.75,193.75 L 139.00,197.25 L 137.75,198.75 L 138.00,202.25 L 136.75,203.75 L 136.75,233.00 L 138.00,234.50 L 137.75,237.00 L 139.00,238.50 L 139.75,245.00 L 149.00,263.50 L 161.25,277.75 L 162.50,277.75 L 171.75,268.50 L 171.75,267.25 L 161.00,253.50 L 155.75,243.25 L 155.75,241.25 L 153.75,237.25 L 154.00,234.75 L 151.75,230.25 L 152.00,215.75 L 151.00,213.25 L 152.00,212.00 L 151.75,206.50 L 153.00,205.00 L 152.75,200.50 L 155.75,194.50 L 155.75,192.50 L 163.00,179.25 L 172.00,169.00 L 171.75,165.25 Z"/>
  <path fill="#152252" fill-rule="evenodd" d="M 274.25,157.00 L 265.00,166.25 L 264.75,169.00 L 274.75,180.25 L 283.00,197.50 L 283.75,203.00 L 285.00,204.50 L 284.75,207.00 L 286.00,208.50 L 286.00,227.25 L 284.75,228.75 L 285.00,231.25 L 283.75,232.75 L 283.00,239.25 L 276.75,252.50 L 265.00,266.25 L 265.00,267.50 L 273.25,277.75 L 275.00,278.00 L 279.75,274.50 L 288.75,262.50 L 297.00,246.00 L 296.75,242.50 L 298.00,241.00 L 298.75,233.50 L 300.00,232.00 L 300.00,202.75 L 298.75,201.25 L 299.00,198.75 L 296.75,193.25 L 297.00,189.75 L 287.75,171.25 L 275.50,157.00 Z"/>
  <path fill="#152252" fill-rule="evenodd" d="M 530.50,149.00 L 502.25,149.00 L 491.75,165.50 L 485.00,172.25 L 470.75,194.50 L 468.00,197.25 L 455.75,216.50 L 453.00,219.25 L 437.75,242.75 L 438.00,265.75 L 440.50,264.75 L 445.25,260.00 L 452.25,255.00 L 465.50,247.75 L 469.50,247.75 L 474.75,242.50 L 476.00,239.25 L 494.00,212.25 L 501.50,203.75 L 504.00,204.50 L 503.75,240.00 L 504.75,241.00 L 510.50,240.75 L 513.00,235.25 L 533.00,207.00 L 533.00,155.75 L 531.75,154.25 L 532.00,150.75 Z"/>
  <path fill="#152252" fill-rule="evenodd" d="M 658.50,77.00 L 564.75,123.75 L 565.00,126.50 L 594.50,145.00 L 598.00,148.50 L 598.00,150.25 L 542.00,234.25 L 540.75,237.50 L 534.00,245.25 L 533.75,248.00 L 535.25,249.75 L 543.50,254.00 L 548.25,258.75 L 549.50,259.00 L 563.75,273.25 L 569.00,283.50 L 572.75,288.00 L 640.00,288.00 L 641.50,286.75 L 647.25,286.75 L 648.00,287.50 L 648.00,292.25 L 638.00,307.25 L 624.75,330.50 L 621.00,335.25 L 610.75,353.50 L 607.00,358.25 L 593.75,381.50 L 590.00,386.25 L 579.75,404.50 L 576.00,409.25 L 574.75,412.50 L 561.00,434.25 L 558.75,439.50 L 548.75,455.75 L 549.75,458.00 L 585.50,457.75 L 625.00,390.25 L 640.00,368.00 L 639.75,365.50 L 645.75,358.50 L 646.75,354.50 L 650.00,348.25 L 668.00,321.00 L 667.75,318.50 L 681.00,299.00 L 680.75,296.50 L 693.00,279.00 L 693.00,260.75 L 691.00,257.75 L 566.50,258.00 L 564.75,256.25 L 564.75,254.50 L 568.75,249.50 L 575.00,238.25 L 582.00,228.25 L 585.75,224.50 L 593.75,211.50 L 596.00,206.25 L 608.75,189.50 L 617.00,174.25 L 624.00,165.25 L 627.50,166.00 L 648.25,181.75 L 650.75,183.00 L 653.50,182.75 L 653.75,180.50 L 655.00,179.00 L 654.75,147.50 L 656.00,146.00 L 655.75,134.50 L 657.00,133.00 L 656.75,122.50 L 658.00,121.00 L 657.75,109.50 L 659.00,108.00 L 658.75,97.50 L 660.00,96.00 L 660.00,78.75 Z"/>
  <path fill="#152252" fill-rule="evenodd" d="M 575.75,99.25 L 537.50,69.00 L 534.25,67.75 L 511.50,53.00 L 501.50,48.00 L 499.50,48.00 L 488.50,42.00 L 486.50,42.00 L 485.50,41.00 L 477.50,39.00 L 474.50,37.00 L 454.50,31.00 L 451.50,29.00 L 443.50,27.00 L 442.00,25.75 L 437.50,26.00 L 436.00,24.75 L 431.50,25.00 L 430.00,23.75 L 425.50,24.00 L 424.00,22.75 L 419.50,23.00 L 418.00,21.75 L 413.50,22.00 L 412.00,20.75 L 407.50,21.00 L 406.00,19.75 L 401.50,20.00 L 400.00,18.75 L 395.50,19.00 L 394.00,17.75 L 334.75,17.75 L 333.25,19.00 L 328.75,18.75 L 327.25,20.00 L 322.75,19.75 L 321.25,21.00 L 316.75,20.75 L 315.25,22.00 L 310.75,21.75 L 309.25,23.00 L 304.75,22.75 L 303.25,24.00 L 298.75,23.75 L 297.25,25.00 L 293.75,24.75 L 292.25,26.00 L 287.75,25.75 L 286.25,27.00 L 283.75,26.75 L 280.25,29.00 L 272.25,31.00 L 269.25,33.00 L 267.25,33.00 L 266.25,34.00 L 258.25,36.00 L 255.25,38.00 L 247.25,40.00 L 244.25,42.00 L 236.25,44.00 L 226.25,49.00 L 224.50,50.75 L 205.25,60.00 L 182.25,75.00 L 157.25,95.00 L 127.00,125.25 L 111.00,145.25 L 103.00,157.25 L 101.75,160.50 L 92.00,174.25 L 82.00,194.25 L 80.00,201.25 L 77.00,206.25 L 77.00,208.25 L 75.00,211.25 L 75.00,213.25 L 73.00,216.25 L 71.00,223.25 L 68.75,226.75 L 69.00,229.25 L 65.75,236.75 L 66.00,239.25 L 65.00,240.25 L 64.00,245.25 L 62.75,246.75 L 63.00,250.25 L 61.75,251.75 L 61.00,259.25 L 59.75,260.75 L 59.00,268.25 L 57.75,269.75 L 57.00,277.25 L 55.75,278.75 L 56.00,285.25 L 54.75,286.75 L 55.00,293.25 L 53.75,294.75 L 53.75,355.00 L 55.00,356.50 L 55.75,371.00 L 57.00,372.50 L 56.75,376.00 L 58.00,377.50 L 58.75,385.00 L 61.00,390.50 L 60.75,394.00 L 63.00,399.50 L 62.75,403.00 L 66.00,410.50 L 65.75,413.00 L 69.00,420.50 L 68.75,423.00 L 73.00,428.50 L 74.00,433.50 L 76.00,436.50 L 76.00,438.50 L 79.00,444.50 L 82.00,454.50 L 85.75,458.00 L 118.00,458.00 L 119.50,456.75 L 122.00,457.00 L 123.75,455.50 L 133.75,440.50 L 133.75,438.50 L 151.75,414.50 L 153.00,411.25 L 165.75,392.50 L 170.00,384.25 L 172.75,381.50 L 175.00,377.25 L 177.75,374.50 L 180.00,370.25 L 212.75,325.50 L 222.00,309.25 L 225.75,306.50 L 227.00,306.75 L 226.75,336.00 L 228.00,337.50 L 228.00,339.25 L 200.75,378.75 L 200.75,456.00 L 204.75,458.00 L 234.50,457.75 L 315.75,344.50 L 317.00,342.00 L 316.75,315.50 L 344.00,277.25 L 346.50,276.00 L 348.00,277.50 L 348.00,280.25 L 346.75,281.75 L 347.00,329.25 L 321.75,367.50 L 320.00,368.25 L 318.75,370.75 L 319.00,456.50 L 321.25,456.75 L 322.75,458.00 L 352.50,457.75 L 390.00,401.25 L 398.75,391.50 L 398.75,389.50 L 402.00,384.25 L 417.75,363.50 L 434.00,337.25 L 443.75,325.50 L 444.75,321.50 L 447.75,318.50 L 456.25,318.75 L 458.75,321.00 L 460.50,320.75 L 471.00,300.25 L 480.25,292.00 L 490.50,287.75 L 504.25,287.75 L 505.25,288.75 L 510.25,289.75 L 513.25,291.75 L 515.25,291.75 L 527.00,306.50 L 527.00,308.50 L 530.00,314.50 L 530.00,321.25 L 523.75,334.50 L 509.50,347.75 L 502.25,351.00 L 500.50,352.75 L 472.25,368.00 L 454.25,379.00 L 447.50,384.75 L 443.25,387.00 L 428.00,402.25 L 418.00,416.25 L 417.00,420.25 L 413.75,425.75 L 414.00,428.25 L 411.75,432.75 L 412.00,435.25 L 409.75,439.75 L 410.00,442.25 L 408.75,443.75 L 408.75,456.00 L 409.75,457.00 L 420.25,456.75 L 421.75,458.00 L 529.50,457.75 L 533.75,453.50 L 535.00,450.25 L 542.75,438.50 L 545.00,433.25 L 547.00,431.00 L 546.50,428.00 L 451.50,428.00 L 450.75,427.25 L 450.75,425.50 L 454.00,420.25 L 459.50,415.75 L 463.25,411.00 L 468.50,407.75 L 474.25,402.00 L 477.50,400.75 L 485.50,394.75 L 487.50,394.75 L 491.50,392.75 L 501.50,385.75 L 503.50,385.75 L 507.50,383.75 L 509.25,382.00 L 533.50,368.75 L 547.75,355.50 L 559.75,334.50 L 559.75,332.50 L 561.00,331.00 L 560.75,328.50 L 562.00,327.00 L 562.00,304.75 L 560.75,303.25 L 560.00,296.75 L 557.75,292.25 L 556.00,290.50 L 551.75,282.25 L 539.50,269.00 L 528.25,263.75 L 522.00,259.75 L 514.50,259.00 L 513.00,257.75 L 509.50,258.00 L 508.00,256.75 L 490.75,256.75 L 489.25,258.00 L 484.75,257.75 L 483.25,259.00 L 479.75,258.75 L 478.25,260.00 L 473.75,259.75 L 471.50,261.75 L 457.25,269.00 L 440.00,287.25 L 439.00,291.25 L 433.75,300.75 L 434.00,304.25 L 432.75,305.75 L 432.00,312.25 L 429.25,315.00 L 425.50,315.00 L 424.00,313.75 L 421.50,314.00 L 417.50,312.00 L 416.00,312.25 L 395.75,342.50 L 393.00,345.25 L 390.75,350.50 L 388.00,353.25 L 381.75,363.50 L 379.00,366.25 L 370.75,379.50 L 368.00,382.25 L 349.50,409.75 L 346.75,408.25 L 346.75,373.50 L 364.00,347.25 L 377.00,330.00 L 377.00,231.75 L 375.75,230.25 L 376.00,222.75 L 375.00,221.75 L 348.75,221.75 L 347.00,223.25 L 317.00,265.25 L 317.00,267.25 L 315.75,268.75 L 316.00,294.25 L 314.75,296.50 L 311.00,300.25 L 301.75,313.50 L 289.00,329.25 L 284.75,337.50 L 274.00,351.25 L 271.75,355.50 L 261.00,369.25 L 258.75,373.50 L 256.00,376.25 L 253.75,380.50 L 251.00,383.25 L 233.00,409.00 L 230.75,409.00 L 231.00,377.75 L 229.75,376.25 L 229.75,374.50 L 255.75,341.50 L 257.00,336.75 L 254.75,332.25 L 255.00,329.75 L 251.75,322.25 L 252.00,319.75 L 248.75,312.25 L 249.00,309.75 L 245.75,302.25 L 246.00,299.75 L 242.75,292.25 L 243.00,289.75 L 239.75,282.25 L 240.00,279.75 L 236.75,272.25 L 237.00,269.75 L 233.75,262.25 L 234.00,259.75 L 232.75,258.25 L 232.75,256.25 L 230.75,252.25 L 231.00,249.75 L 229.75,248.25 L 229.75,246.25 L 227.75,242.25 L 228.00,239.75 L 226.75,238.25 L 226.75,235.50 L 236.00,227.00 L 236.00,210.75 L 228.50,202.00 L 224.00,199.75 L 212.75,199.75 L 207.25,203.00 L 202.00,209.25 L 199.75,213.75 L 199.75,223.00 L 202.00,226.50 L 202.00,228.50 L 210.00,236.50 L 210.00,239.25 L 208.75,240.75 L 209.00,243.25 L 205.75,250.75 L 206.00,253.25 L 205.00,254.25 L 204.00,259.25 L 202.75,260.75 L 203.00,263.25 L 199.75,270.75 L 200.00,273.25 L 196.75,280.75 L 197.00,284.25 L 195.75,285.75 L 196.00,289.25 L 194.75,290.75 L 194.00,298.25 L 178.75,320.50 L 176.00,323.25 L 169.75,333.50 L 167.00,336.25 L 162.75,343.50 L 160.00,346.25 L 138.75,380.50 L 136.00,383.25 L 105.50,426.75 L 104.00,426.50 L 100.75,421.25 L 100.75,419.25 L 94.75,403.25 L 95.00,400.75 L 93.75,399.25 L 94.00,396.75 L 91.75,391.25 L 92.00,387.75 L 90.75,386.25 L 91.00,383.75 L 89.75,382.25 L 90.00,379.75 L 88.75,378.25 L 89.00,375.75 L 86.75,370.25 L 87.00,366.75 L 85.75,365.25 L 86.00,357.75 L 84.75,356.25 L 85.00,347.75 L 83.75,346.25 L 84.00,338.75 L 82.75,337.25 L 82.75,310.50 L 84.00,309.00 L 83.75,303.50 L 85.00,302.00 L 84.75,296.50 L 86.00,295.00 L 85.75,288.50 L 87.00,287.00 L 86.75,281.50 L 88.00,280.00 L 88.75,267.50 L 92.00,261.00 L 91.75,255.50 L 92.75,254.50 L 99.75,231.50 L 101.75,228.50 L 104.75,217.50 L 125.00,179.25 L 142.75,155.50 L 145.00,151.25 L 174.25,121.00 L 196.25,103.00 L 218.50,89.75 L 223.25,86.00 L 231.50,81.75 L 236.25,78.00 L 240.50,75.75 L 242.50,75.75 L 247.50,72.75 L 249.50,72.75 L 254.50,69.75 L 256.50,69.75 L 261.50,66.75 L 263.50,66.75 L 268.50,63.75 L 270.50,63.75 L 276.50,60.75 L 283.00,60.00 L 287.50,57.75 L 294.00,57.00 L 298.50,54.75 L 305.00,54.00 L 306.50,52.75 L 310.00,53.00 L 311.50,51.75 L 316.00,52.00 L 317.50,50.75 L 322.00,51.00 L 323.50,49.75 L 328.00,50.00 L 329.50,48.75 L 399.25,48.75 L 400.75,50.00 L 403.25,49.75 L 404.75,51.00 L 407.25,50.75 L 412.75,53.00 L 423.25,52.75 L 426.25,54.75 L 431.25,55.75 L 432.75,57.00 L 436.25,56.75 L 437.75,58.00 L 445.25,58.75 L 451.25,61.75 L 453.25,61.75 L 459.25,64.75 L 469.25,67.75 L 472.25,69.75 L 477.25,70.75 L 507.50,86.00 L 531.50,102.00 L 547.75,115.00 L 550.00,115.00 L 554.50,112.75 L 557.00,113.00 L 567.50,105.75 L 574.50,103.75 L 576.00,102.00 Z"/>
  <path fill="#1ca3af" fill-rule="evenodd" d="M 226.75,307.25 L 225.25,307.00 L 220.00,312.25 L 213.75,324.50 L 211.00,327.25 L 208.75,331.50 L 206.00,334.25 L 203.75,338.50 L 171.00,383.25 L 163.75,396.50 L 147.75,420.50 L 136.00,436.25 L 133.75,440.75 L 134.00,442.50 L 135.50,442.75 L 138.50,440.75 L 200.75,379.50 L 205.00,371.25 L 227.00,340.00 Z"/>
  <path fill="#1ca3af" fill-rule="evenodd" d="M 345.75,276.00 L 345.00,276.00 L 342.75,280.50 L 317.75,314.75 L 317.75,363.00 L 319.00,364.50 L 319.00,367.50 L 320.50,367.75 L 322.75,365.50 L 346.00,330.00 Z"/>
  <path fill="#1ca3af" fill-rule="evenodd" d="M 314.75,270.25 L 313.25,270.00 L 310.00,273.25 L 270.75,325.50 L 254.00,343.25 L 231.00,373.25 L 230.75,405.00 L 232.00,408.75 L 236.75,403.50 L 239.00,399.25 L 262.75,367.50 L 272.00,353.25 L 282.75,339.50 L 288.00,330.25 L 314.75,295.50 Z"/>
  <path fill="#1ca3af" fill-rule="evenodd" d="M 436.50,248.00 L 434.25,248.00 L 428.00,255.25 L 402.75,294.50 L 389.00,312.25 L 385.75,319.50 L 378.00,328.25 L 349.00,370.25 L 349.00,409.75 L 349.75,409.75 L 350.00,408.25 L 358.00,396.25 L 360.75,393.50 L 369.00,380.25 L 371.75,377.50 L 380.00,364.25 L 382.75,361.50 L 392.75,346.50 L 397.00,338.25 L 414.75,314.50 L 417.00,310.00 L 416.75,306.50 L 418.75,303.50 L 421.75,292.50 L 424.75,288.50 L 424.75,286.50 L 427.00,282.25 L 437.00,268.00 Z"/>
  <path fill="#1ca3af" fill-rule="evenodd" d="M 502.75,204.00 L 495.00,211.25 L 477.00,238.25 L 475.00,242.25 L 475.25,243.75 L 478.00,244.00 L 479.50,242.75 L 484.00,243.00 L 485.50,241.75 L 501.00,242.00 L 502.75,240.50 Z"/>
  <path fill="#1ca3af" fill-rule="evenodd" d="M 595.50,146.00 L 587.00,140.75 L 583.25,142.00 L 581.00,144.25 L 567.75,163.50 L 562.00,170.25 L 559.75,174.50 L 554.00,181.25 L 551.75,185.50 L 543.00,196.25 L 540.75,200.50 L 533.00,207.25 L 530.75,211.50 L 520.00,225.25 L 511.75,237.75 L 512.25,242.75 L 516.25,242.75 L 517.75,244.00 L 521.25,243.75 L 522.75,245.00 L 525.25,244.75 L 528.75,247.00 L 532.00,247.00 L 535.75,243.50 L 594.75,155.50 L 597.00,151.00 L 597.00,147.75 Z"/>
  <path fill="#e0be57" fill-rule="evenodd" d="M 644.75,290.25 L 643.00,288.75 L 573.75,288.75 L 572.00,290.25 L 571.75,292.00 L 576.75,302.00 L 620.25,301.75 L 622.00,303.50 L 622.00,306.25 L 620.00,308.25 L 612.75,321.50 L 609.00,326.25 L 607.75,329.50 L 567.00,396.25 L 561.75,407.50 L 556.25,414.00 L 464.75,413.75 L 459.00,417.25 L 458.00,422.25 L 456.75,423.75 L 457.00,425.50 L 467.25,425.75 L 468.75,427.00 L 546.25,426.75 L 548.00,428.50 L 548.00,431.25 L 536.00,449.25 L 533.75,453.75 L 533.75,457.00 L 534.75,458.00 L 547.50,457.75 L 556.00,442.25 L 572.75,415.50 L 575.00,410.25 L 585.75,393.50 L 588.00,388.25 L 595.75,376.50 L 598.00,371.25 L 608.75,354.50 L 611.00,349.25 L 618.75,337.50 L 624.00,327.25 L 644.75,296.50 Z"/>
  <path fill="#e0be57" fill-rule="evenodd" d="M 483.25,291.00 L 476.25,296.00 L 471.00,301.25 L 462.75,316.75 L 462.75,320.00 L 464.25,322.75 L 466.75,324.00 L 476.00,324.00 L 477.00,323.00 L 477.75,315.50 L 486.25,305.00 L 495.50,300.75 L 500.25,300.75 L 507.50,304.00 L 514.00,310.50 L 514.00,312.50 L 515.00,313.50 L 515.00,320.25 L 513.75,321.75 L 513.00,327.25 L 503.75,343.75 L 504.25,346.75 L 509.00,347.00 L 523.75,333.50 L 523.75,331.50 L 528.00,323.00 L 528.00,311.75 L 526.75,310.25 L 526.75,308.25 L 521.75,299.25 L 512.00,290.75 L 509.50,291.00 L 505.00,288.75 L 489.75,288.75 L 488.25,290.00 Z"/>
</svg>
